PathFileType	4	(X/Y/Z)	pose_F01_0-92.trc
DataRate	CameraRate	NumFrames	NumMarkers	Units	OrigDataRate	OrigDataStartFrame	OrigNumFrames
30	30	7	21	m	30	34	92
Frame#	Time	CHip			RHip			RKnee			RAnkle			RBigToe			RSmallToe			RHeel			LHip			LKnee			LAnkle			LBigToe			LSmallToe			LHeel			Neck			Nose			RShoulder			RElbow			RWrist			LShoulder			LElbow			LWrist			
		X1	Y1	Z1	X2	Y2	Z2	X3	Y3	Z3	X4	Y4	Z4	X5	Y5	Z5	X6	Y6	Z6	X7	Y7	Z7	X8	Y8	Z8	X9	Y9	Z9	X10	Y10	Z10	X11	Y11	Z11	X12	Y12	Z12	X13	Y13	Z13	X14	Y14	Z14	X15	Y15	Z15	X16	Y16	Z16	X17	Y17	Z17	X18	Y18	Z18	X19	Y19	Z19	X20	Y20	Z20	X21	Y21	Z21	
34	1.1333333333333333	-0.1452565738281423	1.8274480940481248	-0.5972689711690982	-0.16036829231397293	1.8257936836105213	-0.541642663262429	-0.1837834566050438	1.6990923352520806	-0.5479074619608799	-0.1834676034027035	1.5648998887263426	-0.5073569311149801	-0.2233308971361786	1.5344202487287744	-0.5328578056393631	-0.2225256209067532	1.5406234923810391	-0.5088819305191512	-0.17615013213780759	1.5531811399116142	-0.5010092695177586	-0.12702990926609115	1.830473106324919	-0.6553927455822557	-0.14691219619309517	1.704539459921597	-0.6440736025471636	-0.130494237261932	1.5727320162145202	-0.6191846122801674	-0.16862578076335416	1.5427024384478274	-0.6437474791257041	-0.27918504521739423	1.4940088081259855	-1.126332972631572	-0.12211336469706018	1.562035570030584	-0.6172805801763259	-1.5886431015030895	1.8831401426415115	0.9070560386075143	-0.1979235791937465	2.0133435938112627	-0.6617446177173448	-0.17599889332978483	1.9675247193539518	-0.5545506552460351	-0.18785170574963786	1.8894785592984664	-0.5315177503664716	-0.19732029990526143	1.8272131828982505	-0.5785333796093092	-1.42800164301297	1.885018417771186	0.6551538266607185	-0.12001635297273996	1.9074155212064272	-0.7392026666219783	-1.3771077884244947	1.8635201322733506	0.5755072353965817
35	1.1666666666666667	-0.13557181280884334	1.82396218698692	-0.6116227356398036	-0.15231144370150732	1.8195828295499077	-0.5499600633493195	-0.18243644652389243	1.695137057373159	-0.549033048566005	-0.18431765477297407	1.564761306542318	-0.5108434947214394	-0.22213195989386333	1.5341798163342737	-0.5380538141634741	-0.2217783354652764	1.5401449185111893	-0.5179497586554147	-0.1750691604340427	1.553830547366657	-0.5060856832197731	-0.12106411874451202	1.826870668533424	-0.6652804831352715	-0.14680156483899232	1.7046260564767863	-0.6442454700726996	-0.1313543109049277	1.5729356972430093	-0.6222971062266704	-0.16852972056962834	1.5424727161855518	-0.6438554884755268	-0.27596816248979267	1.4911163600102966	-1.1248536292756601	-0.12292567560077507	1.5612285785455935	-0.6208043576141477	-0.15074038991153643	1.9680311504606383	-0.6432961159672657	-0.20117259112147387	2.006345042465038	-0.6622294911499618	-0.17376723379219633	1.9614249333885763	-0.5556069870079524	-0.17730930230083194	1.8791426352977225	-0.5413241521027634	-0.1870644902287979	1.8036585456828265	-0.5906477164626923	-1.4285402367006645	1.87767727004535	0.6596754352071743	-0.11050487382550209	1.8980241662936497	-0.744573155139056	-0.7667282010467386	1.8643220386223547	-0.06178170747983258
36	1.2	-0.13599864742693893	1.822760859128855	-0.6113219734007469	-0.15270690512223478	1.8183458750178194	-0.5496201830721482	-0.17691028094069805	1.6983797932442162	-0.5596825788183396	-0.18072057509250516	1.567704808126459	-0.5057199852739956	-0.21562669967218992	1.5358967642637427	-0.5362091981489595	-0.213764529697959	1.5420310234828967	-0.5086511894301073	-0.17247706713274163	1.5568869398528515	-0.5040837596934643	-0.11970129179587458	1.8257852817123623	-0.667188743002149	-0.1414956629999983	1.7052072354153427	-0.6540776150304588	-0.13135007696124115	1.573012871342695	-0.6223097860506581	-0.1682791032548466	1.5438495761105282	-0.6444636472340475	-0.2791881588020774	1.4924990569520118	-1.12525979531498	-0.12330184153065347	1.5633991148545998	-0.6205824355983764	-1.5664364351519677	1.874642038927258	0.8747298885850723	-0.20153529876068105	2.0022158959463616	-0.662110723049756	-0.17546252327902168	1.960839481692442	-0.5706350969457598	-0.1762373422807815	1.8745379719742832	-0.5553197533632142	-0.1717938527097851	1.7914036956387003	-0.6057551698953489	-1.3984483278836302	1.8767644703334687	0.6106993581277301	-0.09785713067201289	1.8998549704755237	-0.7502547449887728	-0.1563486136689825	1.8651239449713588	-0.6990706503562468
37	1.2333333333333334	-0.13146961296186827	1.8216077944442794	-0.6158950813269378	-0.14549369002717868	1.8185561860029005	-0.5533637133106392	-0.17203357359153465	1.6971797642032087	-0.5605076699927486	-0.17412082923697003	1.5688016005572396	-0.5131841579476094	-0.21155595522299397	1.5368076313335766	-0.5407476935755818	-0.21066979469125094	1.5428237494457362	-0.5165189393546488	-0.1643326521286436	1.5576575370835783	-0.5131467921575609	-0.11063763651035272	1.8235944933706407	-0.6763686928423769	-0.13790126287771412	1.7010929545958986	-0.6532035370744574	-0.1293515112788889	1.5705056696713011	-0.6240971293640227	-0.1686543090087101	1.5426567793735944	-0.6439045262938313	-0.28053164462525126	1.4923243826092636	-1.1188749079730176	-0.12110705653469796	1.560389948603802	-0.6224566774443935	-0.14982347499371956	1.9627462570661112	-0.6486568964858731	-0.20257407102688288	1.999108547594542	-0.6648302073921003	-0.17655798889997615	1.9580902778934852	-0.5738767943725724	-0.17234954261463556	1.8764595514499953	-0.5511149229557689	-0.1794388533725656	1.8124013601928268	-0.6003958701560476	-1.3822620971561692	1.8748541236840564	0.5875831014646989	-0.09684205519347683	1.8908275264369434	-0.7577013196760005	-0.13991560060860223	1.834498381017484	-0.6975010254186228
38	1.2666666666666666	-0.12927968852869254	1.8203190866491994	-0.61803813679984	-0.14309559033213923	1.8185859617313387	-0.5558874221936931	-0.16883134818526013	1.695825310491875	-0.5595860080704853	-0.1679267425820619	1.5694262867646305	-0.5198365432058742	-0.20790946982520658	1.537808255267869	-0.544363467852171	-0.20456562159040814	1.5435872545147944	-0.5231216220224656	-0.16184085426329559	1.5590373120470133	-0.5160541741990475	-0.11041044077454974	1.8207815858078298	-0.6760523089555849	-0.13346889358010092	1.6973886009359496	-0.657507144276639	-0.12955399544297047	1.5718433235205158	-0.6238975247315299	-0.16857564785020618	1.5427226261490374	-0.6438764668851777	-0.2792230048189102	1.4908887692446862	-1.125421586273314	-0.12136587209728886	1.5618737497361446	-0.6221644674541661	-0.15154014507239708	1.9610608728518861	-0.6545695834295711	-0.20623066383215824	1.9962375227661984	-0.676840571532895	-0.17848214557480477	1.9568671708688028	-0.5800456240009411	-0.1695238929663597	1.8730103457254412	-0.5584685016004789	-0.16542938884988914	1.8046614989047483	-0.6062437573731311	-1.3654322000824446	1.8708985238501956	0.5630431153785662	-0.09942701209174569	1.8825397380816669	-0.7423662841757579	-0.1435718906618547	1.8057673627273976	-0.6802926640997691
39	1.3	-0.1281463506043982	1.824250349080011	-0.6156267325367929	-0.13994630015332257	1.822574032884969	-0.5554499173258347	-0.17078065281635266	1.6957074428181964	-0.5572108481204847	-0.1663833977545371	1.5686414211210344	-0.5174071562700151	-0.20640782830949442	1.5352915357347723	-0.5413139187607646	-0.20221984630478376	1.5421190940990683	-0.5164342062191377	-0.16193918160611245	1.559417726761924	-0.5160232862397243	-0.10926136188907223	1.827215140877508	-0.6741593393015591	-0.13089325014404612	1.706595172621443	-0.6487766895363007	-0.1295559815167562	1.5719579829616306	-0.6239053140205087	-0.16643710164855127	1.5427447534455132	-0.6459992610696933	-0.27692626384026453	1.4904889404386867	-1.129092657802577	-0.12136829800993518	1.561948402192533	-0.622134468969365	-0.15270741951979475	1.9595759505066408	-0.6579801045511672	-0.20725199961072727	1.996904813619352	-0.68038859306275	-0.17871458522108433	1.954351216851581	-0.5801222261275245	-0.1652947232468828	1.8743789713955474	-0.5603580747386222	-0.16468339358646866	1.802129016945601	-0.5901861117969809	-1.3651265326730626	1.872949970132838	0.5630722672717088	-0.10646896932572661	1.8815754714328647	-0.7441819096272078	-0.1343423363653911	1.808584444558989	-0.6954081141937892
40	1.3333333333333333	-0.1309296792438903	1.8239469081366968	-0.6165530571671062	-0.1456587973210731	1.8222890357968022	-0.5574550967569363	-0.1672027832336675	1.6998635163181062	-0.5572572306754309	-0.168513591182643	1.5693113978656386	-0.5147458830602539	-0.20714352698860103	1.5360968350761537	-0.5362557640290001	-0.20480747462531051	1.5421199672569124	-0.5095400470650702	-0.16404656523986358	1.5596712531695913	-0.5137355562152203	-0.11202900390170639	1.8242942547438923	-0.6746582516669428	-0.12708983961700746	1.6978613426449347	-0.6477052779161413	-0.12843393787678858	1.5732001723481202	-0.6214254000413042	-0.16823392949671231	1.5438790155484472	-0.6444420859605999	-0.27828628585323456	1.4930033616994798	-1.1223099736981286	-0.1203274398970643	1.56089787806206	-0.6190839251961352	-1.5325969855226755	1.8733000259176862	0.8189461705223596	-0.2074314565839764	1.9986033326280632	-0.6811187618392279	-0.17863956949481016	1.9596681714811734	-0.5808914682749783	-0.16875713615728372	1.8812343052508986	-0.5568698742347814	-0.17258967149836743	1.8014902015483036	-0.6026140186392339	-1.3675965550938687	1.8732606789848383	0.5655108796823239	-0.10896126714302073	1.8791824842573728	-0.7444054143245211	-0.1377469938056027	1.7996086288771456	-0.6984063295337883
